<?xml version="1.0" standalone="no"?>
<!DOCTYPE svg PUBLIC "-//W3C//DTD SVG 20010904//EN"
 "http://www.w3.org/TR/2001/REC-SVG-20010904/DTD/svg10.dtd">
<svg version="1.0" xmlns="http://www.w3.org/2000/svg"
 width="225.000000pt" height="225.000000pt" viewBox="0 0 225.000000 225.000000"
 preserveAspectRatio="xMidYMid meet">
<metadata>
Created by potrace 1.10, written by Peter Selinger 2001-2011
</metadata>
<g transform="translate(0.000000,225.000000) scale(0.100000,-0.100000)"
fill="#000000" stroke="none">
<path d="M955 1646 c-5 -3 -40 -7 -78 -11 -37 -4 -65 -11 -61 -16 3 -5 10 -7
15 -3 6 3 59 7 119 9 61 2 114 6 119 10 6 3 14 -3 20 -12 10 -17 10 -17 11 0
0 10 5 15 10 12 6 -4 8 -9 6 -13 -2 -4 35 -8 82 -9 295 -8 580 -96 748 -232
210 -170 190 -389 -50 -549 -191 -128 -452 -193 -774 -192 -389 0 -687 94
-863 272 -76 77 -94 117 -94 214 0 76 3 85 38 141 20 34 37 64 37 67 0 15 50
55 62 51 15 -6 128 52 128 65 0 5 6 7 13 4 7 -2 27 2 43 11 16 8 35 15 42 15
7 0 10 5 6 12 -4 6 -3 8 4 4 6 -3 33 3 61 14 28 11 61 21 74 24 12 2 40 9 62
14 33 9 189 40 285 56 14 3 -11 3 -55 0 -168 -10 -360 -57 -490 -120 -68 -32
-79 -39 -137 -76 -14 -10 -29 -18 -33 -18 -16 0 21 32 57 51 21 11 38 24 38
29 0 6 3 9 8 8 4 -1 30 10 57 25 28 14 44 26 37 27 -24 0 -167 -79 -224 -124
-32 -26 -75 -72 -95 -103 -38 -55 -38 -58 -41 -170 -4 -107 -2 -116 22 -158
91 -155 306 -276 606 -341 124 -28 585 -28 710 -1 322 70 553 211 624 381 10
23 16 67 16 113 0 125 -57 217 -192 310 -92 63 -130 83 -243 123 -168 59 -297
81 -520 85 -110 3 -204 3 -210 1z"/>
<path d="M982 1514 c-7 -8 -10 -19 -7 -24 3 -6 3 -10 -2 -10 -4 0 -9 -24 -10
-53 l-1 -52 9 40 c27 111 16 100 94 100 l70 0 0 -30 c-1 -16 -4 -47 -7 -67
l-7 -38 62 0 c34 0 79 -5 99 -10 21 -6 41 -11 45 -12 14 -2 32 -32 44 -73 l12
-40 8 45 c18 99 2 90 157 92 l137 2 -135 6 c-122 5 -137 3 -152 -13 -9 -10
-15 -24 -12 -31 3 -8 0 -17 -7 -22 -7 -4 -10 -3 -6 3 4 6 0 14 -9 17 -8 3 -13
10 -10 15 4 5 -2 8 -11 7 -10 -2 -32 3 -49 10 -18 7 -59 14 -93 15 -33 1 -61
6 -61 10 0 5 3 9 8 9 5 0 8 71 3 113 -1 4 -36 7 -78 7 -56 -1 -82 -5 -91 -16z"/>
<path d="M1010 1496 c0 -4 -48 -253 -81 -420 -10 -54 -19 -100 -19 -102 0 -2
25 -4 55 -4 30 0 55 1 55 3 0 5 49 257 56 286 5 22 8 23 70 19 99 -6 102 -11
75 -155 -13 -65 -25 -126 -27 -135 -5 -16 2 -18 50 -18 30 0 57 4 60 8 12 20
40 204 41 266 0 69 -1 70 -33 89 -26 15 -54 20 -124 21 l-90 1 6 45 c3 25 9
57 12 73 6 27 6 27 -50 27 -31 0 -56 -2 -56 -4z m53 -85 c-5 -42 -2 -52 16
-67 24 -21 27 -34 7 -34 -26 0 -52 -53 -66 -130 -7 -41 -19 -97 -28 -125 -12
-43 -16 -47 -23 -29 -5 14 3 76 22 170 16 82 31 163 34 179 2 17 6 39 9 50 2
11 5 23 5 28 1 4 8 7 16 7 11 0 13 -10 8 -49z m212 -101 c4 -6 10 -8 15 -5 4
3 13 -8 18 -24 9 -26 6 -59 -14 -151 -3 -14 -8 -44 -11 -67 -4 -28 -11 -43
-23 -46 -11 -3 -17 0 -15 7 2 6 6 34 9 61 8 70 15 117 21 136 3 9 -6 32 -19
52 -17 24 -21 37 -13 41 19 7 25 7 32 -4z"/>
<path d="M650 1393 c-152 -4 -155 -5 -157 -45 -1 -34 -27 -160 -38 -190 -4
-10 -3 -18 2 -18 7 0 25 73 48 199 3 14 9 29 14 34 5 5 75 7 157 5 173 -4 210
-17 250 -83 17 -29 24 -35 24 -20 0 11 3 38 7 59 4 27 3 37 -5 32 -6 -3 -9
-15 -7 -26 5 -25 1 -25 -21 -2 -10 9 -20 17 -23 18 -3 0 -13 4 -21 7 -48 22
-127 32 -230 30z"/>
<path d="M530 1355 c0 -4 -11 -62 -24 -129 -40 -200 -76 -384 -76 -390 0 -3
24 -6 54 -6 61 0 61 0 71 82 l7 55 102 5 c115 6 143 17 197 75 46 49 64 94 63
163 0 114 -46 141 -251 148 -79 3 -143 1 -143 -3z m74 -41 c14 -5 14 -9 -4
-34 -11 -15 -23 -45 -26 -66 -3 -22 -7 -43 -8 -49 -19 -83 -18 -107 5 -131 12
-13 17 -24 11 -24 -14 0 -60 -60 -65 -86 -6 -32 -19 -54 -27 -49 -9 5 -6 68 3
95 3 8 10 44 16 80 6 36 14 79 17 95 4 17 7 42 9 56 1 14 4 30 7 35 3 5 8 22
12 39 4 16 13 33 19 37 15 9 12 9 31 2z m220 -9 c52 -22 78 -79 63 -138 -12
-47 -46 -98 -83 -122 l-25 -16 17 33 c9 18 22 40 29 48 13 15 19 59 16 115 -1
18 -13 43 -32 63 -35 37 -34 37 15 17z m-33 -51 c18 -16 20 -27 16 -72 -10
-96 -55 -132 -167 -132 -54 0 -61 2 -56 18 3 9 13 55 21 102 9 47 18 91 21 99
7 21 138 9 165 -15z"/>
<path d="M640 1228 c1 -21 2 -21 11 -5 7 12 22 17 50 17 56 0 80 -15 75 -45
-3 -14 0 -25 5 -25 13 0 11 54 -3 68 -7 7 -39 12 -75 12 -59 0 -63 -2 -63 -22z"/>
<path d="M764 1145 c3 -9 0 -15 -9 -15 -8 0 -14 -5 -12 -12 3 -16 -67 -42 -96
-34 -20 5 -23 10 -19 38 6 44 -4 33 -12 -14 -7 -38 -7 -38 27 -38 47 0 99 18
120 42 19 23 23 48 6 48 -6 0 -9 -7 -5 -15z"/>
<path d="M1430 1353 c0 -6 -11 -64 -24 -129 -32 -157 -76 -381 -76 -388 0 -3
25 -6 55 -6 l54 0 7 38 c3 20 9 51 13 67 l7 30 101 7 c57 4 113 13 130 21 39
21 97 85 113 126 18 46 19 131 1 165 -30 55 -66 66 -230 73 -101 4 -151 3
-151 -4z m350 -103 c16 -32 16 -40 4 -90 -10 -39 -25 -65 -49 -88 -37 -35 -69
-41 -38 -7 32 36 45 72 46 130 1 54 -1 60 -33 88 -19 16 -30 27 -25 24 6 -3
17 -2 25 3 18 11 46 -12 70 -60z m-279 33 c-11 -16 -25 -59 -31 -98 -21 -123
-22 -131 -1 -149 18 -16 17 -18 -15 -50 -19 -19 -34 -43 -34 -54 0 -31 -11
-52 -27 -52 -16 0 -14 15 23 189 14 62 23 120 20 127 -3 7 -1 16 4 19 5 3 12
26 16 50 6 41 9 45 35 45 l30 0 -20 -27z m190 -29 c18 -16 20 -27 16 -72 -7
-65 -28 -99 -72 -118 -44 -18 -159 -19 -152 -1 2 6 12 53 21 102 10 50 20 96
22 104 7 21 138 9 165 -15z"/>
<path d="M1531 1183 c-7 -38 -15 -78 -18 -90 -5 -21 -2 -23 38 -22 26 1 34 3
19 6 -50 8 -50 8 -34 65 8 29 19 61 25 72 7 13 7 16 0 11 -6 -3 -11 -4 -11 0
0 3 10 10 23 15 22 9 22 9 -4 9 -24 1 -26 -4 -38 -66z"/>
<path d="M1628 1243 c18 -2 30 -8 27 -14 -3 -5 1 -6 9 -3 19 7 21 -19 4 -66
-11 -34 -35 -63 -59 -73 -10 -4 -8 -6 4 -6 30 -2 65 43 72 93 9 58 -4 77 -54
74 l-36 -1 33 -4z"/>
<path d="M1082 1186 c-7 -35 -12 -70 -11 -77 1 -23 19 32 25 74 2 22 7 43 9
47 3 4 27 8 54 8 l49 2 -5 -33 c-2 -17 -11 -56 -18 -86 -8 -30 -12 -58 -9 -63
3 -4 1 -8 -3 -8 -5 0 -9 -8 -9 -17 -1 -10 -4 -33 -8 -50 -7 -37 0 -41 89 -45
52 -3 66 -18 49 -56 -10 -25 -12 -59 -3 -74 5 -9 31 -11 86 -9 43 1 80 5 82 7
3 3 6 17 8 32 l2 27 -10 -27 c-10 -27 -14 -28 -79 -28 -38 0 -71 4 -74 9 -4 5
1 41 9 81 17 83 18 91 4 68 -8 -15 -24 -18 -79 -18 -49 0 -70 4 -70 13 0 6 11
70 25 141 14 71 22 132 19 137 -3 5 -31 9 -63 9 l-58 0 -11 -64z"/>
<path d="M1054 1043 c-13 -92 -14 -93 -95 -93 l-72 0 7 51 7 51 -37 -36 c-46
-45 -114 -66 -210 -66 l-72 0 -7 -52 c-12 -85 -15 -88 -97 -88 l-71 0 7 51 c4
29 9 66 12 83 4 30 4 30 -7 6 -18 -41 -23 -139 -6 -146 30 -11 138 -10 148 2
5 7 15 40 21 73 l12 61 76 0 c74 0 180 30 180 50 0 19 26 16 28 -3 1 -17 -1
-19 -8 -7 -5 8 -10 11 -10 7 0 -5 8 -19 18 -30 14 -19 27 -22 85 -21 37 0 72
5 79 12 6 6 13 28 15 49 2 21 8 50 13 66 5 15 5 27 0 27 -5 0 -12 -21 -16 -47z"/>
<path d="M436 1060 c-10 -34 -13 -79 -4 -74 10 6 21 70 16 86 -3 7 -8 1 -12
-12z"/>
<path d="M1513 943 c20 -2 54 -2 75 0 20 2 3 4 -38 4 -41 0 -58 -2 -37 -4z"/>
</g>
</svg>
